<?xml version="1.0" standalone="no"?><!DOCTYPE svg PUBLIC "-//W3C//DTD SVG 1.1//EN" "http://www.w3.org/Graphics/SVG/1.1/DTD/svg11.dtd"><svg class="icon" width="200px" height="200.00px" viewBox="0 0 1024 1024" version="1.1" xmlns="http://www.w3.org/2000/svg"><path d="M157.184 708.4032h38.2976V746.496h-38.2976zM258.3552 725.8112c16.9984 15.1552 36.6592 22.8352 59.0848 22.8352 14.848-0.3072 27.8528-3.3792 39.0144-9.728 11.1616-5.8368 20.992-13.7216 29.2864-23.1424l-28.16-24.9856c-9.728 12.8-22.528 19.456-38.7072 19.6608-32.3584 0.6144-48.9472-18.8416-49.3568-58.5728 0.4096-39.8336 16.9984-59.4944 49.3568-59.0848 16.1792 0.4096 28.9792 7.168 38.7072 19.8656l28.2624-24.9856c-8.0896-9.8304-18.0224-18.0224-29.2864-23.8592-11.264-5.8368-24.2688-8.8064-39.0144-9.1136-22.4256-0.3072-42.0864 7.2704-59.0848 22.4256-17.5104 15.4624-26.5216 40.3456-27.136 74.6496 0.512 34.2016 9.4208 58.88 27.0336 74.0352zM423.6288 724.3776c5.3248 6.0416 12.5952 11.264 22.016 15.9744 9.3184 5.3248 21.0944 7.9872 35.6352 8.0896 14.9504-0.3072 27.136-2.9696 36.352-8.0896 5.0176-2.1504 9.1136-4.8128 12.288-7.8848 3.2768-2.4576 6.2464-5.12 9.0112-8.0896 7.5776-7.5776 13.0048-16.7936 16.1792-27.136 2.9696-10.4448 4.608-25.7024 4.608-45.568 0-19.968-1.536-35.2256-4.608-45.9776-2.9696-10.1376-8.6016-19.1488-16.1792-26.4192-5.0176-6.2464-12.0832-11.9808-21.2992-16.9984-9.3184-4.7104-21.4016-7.2704-36.352-7.3728-14.5408 0.3072-26.4192 2.6624-35.6352 7.3728-9.4208 5.0176-16.6912 10.5472-22.016 16.9984-7.168 7.168-12.288 15.9744-15.6672 26.4192-3.2768 10.752-5.0176 26.0096-5.0176 45.9776s1.7408 35.1232 5.0176 45.568c3.072 10.0352 8.4992 19.3536 15.6672 27.136z m19.8656-101.888c1.3312-5.7344 3.6864-10.9568 7.168-15.6672 3.3792-4.3008 7.8848-7.68 12.8-10.0352 5.5296-2.56 11.4688-3.8912 18.0224-3.8912 6.9632 0 13.0048 1.3312 18.2272 3.8912 5.5296 2.4576 9.728 5.7344 12.3904 10.0352 3.8912 4.608 6.4512 9.8304 7.5776 15.6672 1.1264 6.144 1.8432 15.9744 1.8432 29.5936 0 12.8-0.6144 22.4256-1.8432 28.3648-1.3312 6.144-3.6864 11.6736-7.5776 16.384-2.8672 3.584-6.9632 6.8608-12.3904 9.728-5.3248 2.6624-11.264 3.9936-18.2272 3.9936-6.4512 0-12.3904-1.3312-18.0224-3.9936-5.3248-2.8672-9.5232-6.0416-12.8-9.728-3.3792-5.0176-5.8368-10.5472-7.168-16.384-1.4336-6.144-2.1504-15.6672-2.1504-28.8768-0.1024-13.1072 0.6144-22.8352 2.1504-29.0816zM640.2048 633.7536c0-13.312 3.6864-23.2448 10.9568-30.3104 6.9632-6.9632 15.9744-10.5472 26.8288-10.5472 10.9568 0 19.968 3.584 27.136 10.5472 6.9632 6.8608 10.4448 16.9984 10.4448 30.3104v112.64h38.2976v-112.64c0-13.312 3.584-23.2448 10.8544-30.3104 7.168-6.9632 16.1792-10.5472 27.136-10.5472s19.968 3.584 26.9312 10.5472c6.9632 6.8608 10.4448 16.9984 10.4448 30.3104v112.64h38.2976V620.6464c-0.4096-21.504-7.2704-37.9904-20.1728-49.2544-13.1072-10.9568-27.4432-16.5888-43.2128-16.5888-24.9856-0.3072-44.9536 7.9872-59.8016 24.8832-6.2464-6.9632-13.7216-13.1072-21.8112-18.0224-7.9872-4.3008-18.7392-6.5536-31.8464-6.7584-20.5824 0-36.9664 7.3728-49.664 22.4256h-0.7168v-19.968h-38.2976V746.496h38.2976V633.7536zM835.6864 34.2016H188.3136C103.424 34.2016 34.816 102.912 34.816 187.6992v648.6016c0 84.7872 68.608 153.4976 153.4976 153.4976h647.4752c84.7872 0 153.4976-68.608 153.4976-153.4976V187.6992c-0.1024-84.7872-68.7104-153.4976-153.6-153.4976z m86.4256 802.0992c0 47.5136-38.7072 86.3232-86.3232 86.3232H188.3136c-47.5136 0-86.3232-38.7072-86.3232-86.3232V379.392h820.0192v456.9088h0.1024z m0-523.9808h-820.224V187.6992c0-47.5136 38.7072-86.3232 86.3232-86.3232h647.4752c47.5136 0 86.3232 38.7072 86.3232 86.3232l0.1024 124.6208zM233.6768 159.744h46.08v94.1056h-46.08zM303.4112 159.744h46.08v94.1056h-46.08z" /></svg>