<?xml version="1.0" standalone="no"?><!DOCTYPE svg PUBLIC "-//W3C//DTD SVG 1.1//EN" "http://www.w3.org/Graphics/SVG/1.1/DTD/svg11.dtd"><svg height="500" legacy-metrics="false" node-id="1" sillyvg="true" template-height="500" template-width="500" version="1.1" viewBox="0 0 500 500" width="500" xmlns="http://www.w3.org/2000/svg" xmlns:xlink="http://www.w3.org/1999/xlink"><defs node-id="19"><radialGradient cx="112.9234" cy="-271.8629" fx="112.9234" fy="-271.8629" gradientTransform="matrix(0.9942 0.1073 -0.1073 0.9942 110.5505 508.6321)" gradientUnits="userSpaceOnUse" id="SVGID_1_" node-id="3" r="146.6265"><stop offset="0" stop-color="#0061c1" stop-opacity="0"></stop><stop offset="0.8579" stop-color="#0061c1" stop-opacity="0"></stop><stop offset="1" stop-color="#0061c1" stop-opacity="0.6"></stop></radialGradient><radialGradient cx="112.9234" cy="-271.8629" fx="112.9234" fy="-271.8629" gradientTransform="matrix(0.9942 0.1073 -0.1073 0.9942 110.5505 508.6321)" gradientUnits="userSpaceOnUse" id="SVGID_2_" node-id="12" r="116.9339"><stop offset="0" stop-color="#0061c1" stop-opacity="0"></stop><stop offset="0.8022" stop-color="#ff7bac" stop-opacity="0"></stop><stop offset="1" stop-color="#ff7bac" stop-opacity="0.6"></stop></radialGradient></defs><g node-id="60"><path d="M 398.61 250.45 C 398.61 331.43 332.96 397.08 251.98 397.08 C 171.00 397.08 105.36 331.43 105.36 250.45 C 105.36 169.47 171.00 103.82 251.98 103.82 C 332.96 103.82 398.61 169.47 398.61 250.45 Z" fill="url(#SVGID_1_)" fill-opacity="0.8" fill-rule="nonzero" group-id="1" node-id="42" stroke-linecap="butt" stroke-opacity="0.8" stroke-width="1" target-height="293.25198" target-width="293.252" target-x="105.357" target-y="103.824"></path></g><path d="M 368.92 250.45 C 368.92 315.03 316.56 367.38 251.98 367.38 C 187.40 367.38 135.05 315.03 135.05 250.45 C 135.05 185.87 187.40 133.52 251.98 133.52 C 316.56 133.52 368.92 185.87 368.92 250.45 Z" fill="#102d77" fill-rule="nonzero" node-id="45" stroke="none" target-height="233.868" target-width="233.868" target-x="135.049" target-y="133.516"></path><path d="M 363.77 216.05 C 350.43 172.76 312.42 139.36 264.53 134.19 C 235.70 131.08 208.20 138.73 186.01 153.90 C 194.15 165.56 203.17 179.34 213.51 184.72 C 233.62 195.21 264.47 180.37 266.77 190.47 C 269.06 200.57 294.89 189.50 297.28 195.91 C 299.03 200.62 335.64 216.70 363.77 216.05 Z" fill="#0061c1" fill-rule="nonzero" node-id="47" stroke="none" target-height="82.53238" target-width="177.759" target-x="186.013" target-y="133.51862"></path><path d="M 196.28 253.06 C 173.39 250.59 151.47 233.34 138.72 221.34 C 137.34 226.70 136.34 232.24 135.72 237.91 C 130.26 288.59 158.03 335.19 201.56 355.99 C 216.01 348.81 223.21 336.73 223.90 328.09 C 224.81 316.79 202.29 302.97 220.36 286.75 C 238.42 270.54 231.89 256.90 196.28 253.06 Z" fill="#0061c1" fill-rule="nonzero" node-id="49" stroke="none" target-height="134.652" target-width="94.992874" target-x="135.0651" target-y="221.335"></path><path d="M 337.36 278.13 C 274.72 267.99 241.55 318.60 259.79 323.64 C 278.03 328.69 288.42 323.65 304.22 328.44 C 310.70 330.40 316.11 337.00 321.44 344.52 C 340.88 330.16 355.85 309.84 363.43 285.91 C 356.85 282.63 348.33 279.91 337.36 278.13 Z" fill="#0061c1" fill-rule="nonzero" node-id="51" stroke="none" target-height="67.694305" target-width="108.62259" target-x="254.81042" target-y="276.82568"></path><path d="M 368.92 250.45 C 368.92 315.03 316.56 367.38 251.98 367.38 C 187.40 367.38 135.05 315.03 135.05 250.45 C 135.05 185.87 187.40 133.52 251.98 133.52 C 316.56 133.52 368.92 185.87 368.92 250.45 Z" fill="url(#SVGID_2_)" fill-opacity="0.7" fill-rule="nonzero" group-id="2" node-id="55" stroke-linecap="butt" stroke-opacity="0.7" stroke-width="1" target-height="233.868" target-width="233.868" target-x="135.049" target-y="133.516"></path><path d="M 461.38 247.82 C 450.32 240.72 434.35 233.75 413.93 227.08 C 398.69 222.11 381.50 217.48 362.88 213.29 C 364.70 218.70 366.13 224.27 367.14 229.97 C 382.35 233.58 396.47 237.48 409.18 241.63 C 428.10 247.80 443.29 254.40 453.12 260.70 C 462.28 266.58 465.26 271.23 465.02 273.43 C 464.79 275.63 460.88 279.54 450.67 283.33 C 439.73 287.39 423.48 290.60 403.69 292.59 C 361.57 296.84 306.20 295.71 247.78 289.40 C 189.35 283.10 135.02 272.40 94.78 259.27 C 75.87 253.09 60.68 246.50 50.85 240.20 C 41.68 234.32 38.70 229.66 38.94 227.47 C 39.18 225.27 43.08 221.35 53.29 217.56 C 64.24 213.50 80.48 210.30 100.28 208.30 C 113.58 206.96 128.21 206.16 143.84 205.88 C 146.05 200.53 148.63 195.39 151.56 190.49 C 132.48 190.61 114.70 191.47 98.74 193.08 C 77.37 195.23 60.29 198.64 47.97 203.22 C 32.90 208.81 24.74 216.41 23.73 225.82 C 22.71 235.23 29.06 244.40 42.59 253.08 C 53.65 260.18 69.61 267.15 90.03 273.82 C 131.25 287.27 186.69 298.21 246.14 304.62 C 305.59 311.04 362.08 312.17 405.22 307.82 C 426.59 305.67 443.68 302.25 456.00 297.68 C 471.07 292.09 479.22 284.48 480.24 275.07 C 481.26 265.67 474.91 256.50 461.38 247.82 Z" fill="#1673c8" fill-rule="nonzero" node-id="58" stroke="none" target-height="119.89966" target-width="456.62372" target-x="23.67044" target-y="190.491"></path></svg>